<?xml version="1.0" encoding="UTF-8" standalone="no"?>
<!DOCTYPE svg PUBLIC "-//W3C//DTD SVG 1.1//EN"
 "http://www.w3.org/Graphics/SVG/1.1/DTD/svg11.dtd">
<!-- Generated by graphviz version 2.50.0 (0)
 -->
<!-- Title: G Pages: 1 -->
<svg width="598pt" height="479pt"
 viewBox="0.00 0.00 597.50 479.00" xmlns="http://www.w3.org/2000/svg" xmlns:xlink="http://www.w3.org/1999/xlink">
<g id="graph0" class="graph" transform="scale(1 1) rotate(0) translate(4 475)">
<title>G</title>
<polygon fill="white" stroke="transparent" points="-4,4 -4,-475 593.5,-475 593.5,4 -4,4"/>
<!-- node0 -->
<g id="node1" class="node">
<title>node0</title>
<polygon fill="none" stroke="black" points="488,-471 372,-471 372,-435 488,-435 488,-471"/>
<text text-anchor="middle" x="430" y="-449.3" font-family="Times,serif" font-size="14.00">looks like a worm</text>
</g>
<!-- node1 -->
<g id="node2" class="node">
<title>node1</title>
<polygon fill="none" stroke="black" points="424,-384 326,-384 326,-348 424,-348 424,-384"/>
<text text-anchor="middle" x="375" y="-362.3" font-family="Times,serif" font-size="14.00">looks like a rat</text>
</g>
<!-- node0&#45;&gt;node1 -->
<g id="edge1" class="edge">
<title>node0&#45;&gt;node1</title>
<path fill="none" stroke="black" d="M418.87,-434.8C411.04,-422.7 400.43,-406.3 391.61,-392.67"/>
<polygon fill="black" stroke="black" points="394.48,-390.67 386.11,-384.18 388.61,-394.47 394.48,-390.67"/>
<text text-anchor="middle" x="413" y="-405.8" font-family="Times,serif" font-size="14.00">no</text>
</g>
<!-- node2 -->
<g id="node19" class="node">
<title>node2</title>
<polygon fill="none" stroke="black" points="531.5,-384 442.5,-384 442.5,-348 531.5,-348 531.5,-384"/>
<text text-anchor="middle" x="487" y="-362.3" font-family="Times,serif" font-size="14.00">colour brown</text>
</g>
<!-- node0&#45;&gt;node2 -->
<g id="edge18" class="edge">
<title>node0&#45;&gt;node2</title>
<path fill="none" stroke="black" d="M441.53,-434.8C449.65,-422.7 460.64,-406.3 469.79,-392.67"/>
<polygon fill="black" stroke="black" points="472.82,-394.43 475.48,-384.18 467.01,-390.53 472.82,-394.43"/>
<text text-anchor="middle" x="471.5" y="-405.8" font-family="Times,serif" font-size="14.00">yes</text>
</g>
<!-- node3 -->
<g id="node3" class="node">
<title>node3</title>
<polygon fill="none" stroke="black" points="311.5,-297 232.5,-297 232.5,-261 311.5,-261 311.5,-297"/>
<text text-anchor="middle" x="272" y="-275.3" font-family="Times,serif" font-size="14.00">loves water</text>
</g>
<!-- node1&#45;&gt;node3 -->
<g id="edge2" class="edge">
<title>node1&#45;&gt;node3</title>
<path fill="none" stroke="black" d="M354.16,-347.8C338.8,-335.13 317.72,-317.73 300.76,-303.74"/>
<polygon fill="black" stroke="black" points="302.75,-300.84 292.81,-297.18 298.3,-306.24 302.75,-300.84"/>
<text text-anchor="middle" x="337" y="-318.8" font-family="Times,serif" font-size="14.00">no</text>
</g>
<!-- node4 -->
<g id="node14" class="node">
<title>node4</title>
<polygon fill="none" stroke="black" points="431.5,-297 342.5,-297 342.5,-261 431.5,-261 431.5,-297"/>
<text text-anchor="middle" x="387" y="-275.3" font-family="Times,serif" font-size="14.00">colour purple</text>
</g>
<!-- node1&#45;&gt;node4 -->
<g id="edge13" class="edge">
<title>node1&#45;&gt;node4</title>
<path fill="none" stroke="black" d="M377.43,-347.8C379.07,-336.16 381.28,-320.55 383.15,-307.24"/>
<polygon fill="black" stroke="black" points="386.64,-307.57 384.58,-297.18 379.71,-306.59 386.64,-307.57"/>
<text text-anchor="middle" x="391.5" y="-318.8" font-family="Times,serif" font-size="14.00">yes</text>
</g>
<!-- node7 -->
<g id="node4" class="node">
<title>node7</title>
<polygon fill="none" stroke="black" points="189.5,-210 134.5,-210 134.5,-174 189.5,-174 189.5,-210"/>
<text text-anchor="middle" x="162" y="-188.3" font-family="Times,serif" font-size="14.00">is a cat</text>
</g>
<!-- node3&#45;&gt;node7 -->
<g id="edge3" class="edge">
<title>node3&#45;&gt;node7</title>
<path fill="none" stroke="black" d="M249.74,-260.8C233.19,-248.01 210.42,-230.42 192.23,-216.36"/>
<polygon fill="black" stroke="black" points="194.28,-213.52 184.23,-210.18 190,-219.06 194.28,-213.52"/>
<text text-anchor="middle" x="231" y="-231.8" font-family="Times,serif" font-size="14.00">no</text>
</g>
<!-- node8 -->
<g id="node9" class="node">
<title>node8</title>
<polygon fill="none" stroke="black" points="333,-210 211,-210 211,-174 333,-174 333,-210"/>
<text text-anchor="middle" x="272" y="-188.3" font-family="Times,serif" font-size="14.00">doesn&#39;t have a shell</text>
</g>
<!-- node3&#45;&gt;node8 -->
<g id="edge8" class="edge">
<title>node3&#45;&gt;node8</title>
<path fill="none" stroke="black" d="M272,-260.8C272,-249.16 272,-233.55 272,-220.24"/>
<polygon fill="black" stroke="black" points="275.5,-220.18 272,-210.18 268.5,-220.18 275.5,-220.18"/>
<text text-anchor="middle" x="281.5" y="-231.8" font-family="Times,serif" font-size="14.00">yes</text>
</g>
<!-- node15 -->
<g id="node5" class="node">
<title>node15</title>
<polygon fill="none" stroke="black" points="104,-123 36,-123 36,-87 104,-87 104,-123"/>
<text text-anchor="middle" x="70" y="-101.3" font-family="Times,serif" font-size="14.00">loves fire</text>
</g>
<!-- node7&#45;&gt;node15 -->
<g id="edge4" class="edge">
<title>node7&#45;&gt;node15</title>
<path fill="none" stroke="black" d="M143.38,-173.8C129.79,-161.24 111.18,-144.05 96.11,-130.12"/>
<polygon fill="black" stroke="black" points="98.31,-127.39 88.59,-123.18 93.56,-132.53 98.31,-127.39"/>
<text text-anchor="middle" x="129" y="-144.8" font-family="Times,serif" font-size="14.00">no</text>
</g>
<!-- node16 -->
<g id="node8" class="node">
<title>node16</title>
<polygon fill="none" stroke="black" points="202,-123 122,-123 122,-87 202,-87 202,-123"/>
<text text-anchor="middle" x="162" y="-101.3" font-family="Times,serif" font-size="14.00">Poltorashka</text>
</g>
<!-- node7&#45;&gt;node16 -->
<g id="edge7" class="edge">
<title>node7&#45;&gt;node16</title>
<path fill="none" stroke="black" d="M162,-173.8C162,-162.16 162,-146.55 162,-133.24"/>
<polygon fill="black" stroke="black" points="165.5,-133.18 162,-123.18 158.5,-133.18 165.5,-133.18"/>
<text text-anchor="middle" x="171.5" y="-144.8" font-family="Times,serif" font-size="14.00">yes</text>
</g>
<!-- node31 -->
<g id="node6" class="node">
<title>node31</title>
<polygon fill="none" stroke="black" points="54,-36 0,-36 0,0 54,0 54,-36"/>
<text text-anchor="middle" x="27" y="-14.3" font-family="Times,serif" font-size="14.00">Ponyta</text>
</g>
<!-- node15&#45;&gt;node31 -->
<g id="edge5" class="edge">
<title>node15&#45;&gt;node31</title>
<path fill="none" stroke="black" d="M61.3,-86.8C55.3,-74.93 47.2,-58.93 40.38,-45.45"/>
<polygon fill="black" stroke="black" points="43.33,-43.52 35.69,-36.18 37.08,-46.68 43.33,-43.52"/>
<text text-anchor="middle" x="59" y="-57.8" font-family="Times,serif" font-size="14.00">no</text>
</g>
<!-- node32 -->
<g id="node7" class="node">
<title>node32</title>
<polygon fill="none" stroke="black" points="156,-36 72,-36 72,0 156,0 156,-36"/>
<text text-anchor="middle" x="114" y="-14.3" font-family="Times,serif" font-size="14.00">Charmander</text>
</g>
<!-- node15&#45;&gt;node32 -->
<g id="edge6" class="edge">
<title>node15&#45;&gt;node32</title>
<path fill="none" stroke="black" d="M78.9,-86.8C85.11,-74.82 93.49,-58.62 100.51,-45.06"/>
<polygon fill="black" stroke="black" points="103.62,-46.67 105.11,-36.18 97.4,-43.45 103.62,-46.67"/>
<text text-anchor="middle" x="104.5" y="-57.8" font-family="Times,serif" font-size="14.00">yes</text>
</g>
<!-- node17 -->
<g id="node10" class="node">
<title>node17</title>
<polygon fill="none" stroke="black" points="279.5,-123 220.5,-123 220.5,-87 279.5,-87 279.5,-123"/>
<text text-anchor="middle" x="250" y="-101.3" font-family="Times,serif" font-size="14.00">Squirtle</text>
</g>
<!-- node8&#45;&gt;node17 -->
<g id="edge9" class="edge">
<title>node8&#45;&gt;node17</title>
<path fill="none" stroke="black" d="M267.55,-173.8C264.54,-162.16 260.49,-146.55 257.05,-133.24"/>
<polygon fill="black" stroke="black" points="260.34,-131.98 254.45,-123.18 253.56,-133.73 260.34,-131.98"/>
<text text-anchor="middle" x="270" y="-144.8" font-family="Times,serif" font-size="14.00">no</text>
</g>
<!-- node18 -->
<g id="node11" class="node">
<title>node18</title>
<polygon fill="none" stroke="black" points="422,-123 298,-123 298,-87 422,-87 422,-123"/>
<text text-anchor="middle" x="360" y="-101.3" font-family="Times,serif" font-size="14.00">loves programming</text>
</g>
<!-- node8&#45;&gt;node18 -->
<g id="edge10" class="edge">
<title>node8&#45;&gt;node18</title>
<path fill="none" stroke="black" d="M289.81,-173.8C302.69,-161.36 320.28,-144.36 334.63,-130.5"/>
<polygon fill="black" stroke="black" points="337.46,-132.64 342.22,-123.18 332.59,-127.61 337.46,-132.64"/>
<text text-anchor="middle" x="331.5" y="-144.8" font-family="Times,serif" font-size="14.00">yes</text>
</g>
<!-- node37 -->
<g id="node12" class="node">
<title>node37</title>
<polygon fill="none" stroke="black" points="352.5,-36 289.5,-36 289.5,0 352.5,0 352.5,-36"/>
<text text-anchor="middle" x="321" y="-14.3" font-family="Times,serif" font-size="14.00">Wombat</text>
</g>
<!-- node18&#45;&gt;node37 -->
<g id="edge11" class="edge">
<title>node18&#45;&gt;node37</title>
<path fill="none" stroke="black" d="M352.11,-86.8C346.66,-74.93 339.32,-58.93 333.14,-45.45"/>
<polygon fill="black" stroke="black" points="336.23,-43.8 328.88,-36.18 329.87,-46.72 336.23,-43.8"/>
<text text-anchor="middle" x="350" y="-57.8" font-family="Times,serif" font-size="14.00">no</text>
</g>
<!-- node38 -->
<g id="node13" class="node">
<title>node38</title>
<polygon fill="none" stroke="black" points="425,-36 371,-36 371,0 425,0 425,-36"/>
<text text-anchor="middle" x="398" y="-14.3" font-family="Times,serif" font-size="14.00">Ded32</text>
</g>
<!-- node18&#45;&gt;node38 -->
<g id="edge12" class="edge">
<title>node18&#45;&gt;node38</title>
<path fill="none" stroke="black" d="M367.69,-86.8C373,-74.93 380.15,-58.93 386.18,-45.45"/>
<polygon fill="black" stroke="black" points="389.44,-46.73 390.32,-36.18 383.04,-43.88 389.44,-46.73"/>
<text text-anchor="middle" x="391.5" y="-57.8" font-family="Times,serif" font-size="14.00">yes</text>
</g>
<!-- node9 -->
<g id="node15" class="node">
<title>node9</title>
<polygon fill="none" stroke="black" points="417,-210 357,-210 357,-174 417,-174 417,-210"/>
<text text-anchor="middle" x="387" y="-188.3" font-family="Times,serif" font-size="14.00">Pikachu</text>
</g>
<!-- node4&#45;&gt;node9 -->
<g id="edge14" class="edge">
<title>node4&#45;&gt;node9</title>
<path fill="none" stroke="black" d="M387,-260.8C387,-249.16 387,-233.55 387,-220.24"/>
<polygon fill="black" stroke="black" points="390.5,-220.18 387,-210.18 383.5,-220.18 390.5,-220.18"/>
<text text-anchor="middle" x="394" y="-231.8" font-family="Times,serif" font-size="14.00">no</text>
</g>
<!-- node10 -->
<g id="node16" class="node">
<title>node10</title>
<polygon fill="none" stroke="black" points="497.5,-210 438.5,-210 438.5,-174 497.5,-174 497.5,-210"/>
<text text-anchor="middle" x="468" y="-188.3" font-family="Times,serif" font-size="14.00">big ears</text>
</g>
<!-- node4&#45;&gt;node10 -->
<g id="edge15" class="edge">
<title>node4&#45;&gt;node10</title>
<path fill="none" stroke="black" d="M403.39,-260.8C415.25,-248.36 431.44,-231.36 444.65,-217.5"/>
<polygon fill="black" stroke="black" points="447.27,-219.83 451.63,-210.18 442.2,-215 447.27,-219.83"/>
<text text-anchor="middle" x="442.5" y="-231.8" font-family="Times,serif" font-size="14.00">yes</text>
</g>
<!-- node21 -->
<g id="node17" class="node">
<title>node21</title>
<polygon fill="none" stroke="black" points="495.5,-123 440.5,-123 440.5,-87 495.5,-87 495.5,-123"/>
<text text-anchor="middle" x="468" y="-101.3" font-family="Times,serif" font-size="14.00">Rattata</text>
</g>
<!-- node10&#45;&gt;node21 -->
<g id="edge16" class="edge">
<title>node10&#45;&gt;node21</title>
<path fill="none" stroke="black" d="M468,-173.8C468,-162.16 468,-146.55 468,-133.24"/>
<polygon fill="black" stroke="black" points="471.5,-133.18 468,-123.18 464.5,-133.18 471.5,-133.18"/>
<text text-anchor="middle" x="475" y="-144.8" font-family="Times,serif" font-size="14.00">no</text>
</g>
<!-- node22 -->
<g id="node18" class="node">
<title>node22</title>
<polygon fill="none" stroke="black" points="574.5,-123 513.5,-123 513.5,-87 574.5,-87 574.5,-123"/>
<text text-anchor="middle" x="544" y="-101.3" font-family="Times,serif" font-size="14.00">Nidoran</text>
</g>
<!-- node10&#45;&gt;node22 -->
<g id="edge17" class="edge">
<title>node10&#45;&gt;node22</title>
<path fill="none" stroke="black" d="M483.38,-173.8C494.4,-161.47 509.42,-144.68 521.75,-130.89"/>
<polygon fill="black" stroke="black" points="524.59,-132.96 528.64,-123.18 519.37,-128.3 524.59,-132.96"/>
<text text-anchor="middle" x="520.5" y="-144.8" font-family="Times,serif" font-size="14.00">yes</text>
</g>
<!-- node5 -->
<g id="node20" class="node">
<title>node5</title>
<polygon fill="none" stroke="black" points="514,-297 452,-297 452,-261 514,-261 514,-297"/>
<text text-anchor="middle" x="483" y="-275.3" font-family="Times,serif" font-size="14.00">Caterpie</text>
</g>
<!-- node2&#45;&gt;node5 -->
<g id="edge19" class="edge">
<title>node2&#45;&gt;node5</title>
<path fill="none" stroke="black" d="M486.19,-347.8C485.64,-336.16 484.91,-320.55 484.28,-307.24"/>
<polygon fill="black" stroke="black" points="487.77,-307 483.81,-297.18 480.78,-307.33 487.77,-307"/>
<text text-anchor="middle" x="493" y="-318.8" font-family="Times,serif" font-size="14.00">no</text>
</g>
<!-- node6 -->
<g id="node21" class="node">
<title>node6</title>
<polygon fill="none" stroke="black" points="589.5,-297 532.5,-297 532.5,-261 589.5,-261 589.5,-297"/>
<text text-anchor="middle" x="561" y="-275.3" font-family="Times,serif" font-size="14.00">Weedle</text>
</g>
<!-- node2&#45;&gt;node6 -->
<g id="edge20" class="edge">
<title>node2&#45;&gt;node6</title>
<path fill="none" stroke="black" d="M501.98,-347.8C512.71,-335.47 527.33,-318.68 539.33,-304.89"/>
<polygon fill="black" stroke="black" points="542.12,-307.02 546.05,-297.18 536.84,-302.42 542.12,-307.02"/>
<text text-anchor="middle" x="537.5" y="-318.8" font-family="Times,serif" font-size="14.00">yes</text>
</g>
</g>
</svg>
