<?xml version="1.0" encoding="UTF-8" standalone="no"?>
<!DOCTYPE svg PUBLIC "-//W3C//DTD SVG 1.1//EN"
 "http://www.w3.org/Graphics/SVG/1.1/DTD/svg11.dtd">
<!-- Generated by graphviz version 2.43.0 (0)
 -->
<!-- Title: G Pages: 1 -->
<svg width="526pt" height="392pt"
 viewBox="0.00 0.00 526.00 392.00" xmlns="http://www.w3.org/2000/svg" xmlns:xlink="http://www.w3.org/1999/xlink">
<g id="graph0" class="graph" transform="scale(1 1) rotate(0) translate(4 388)">
<title>G</title>
<polygon fill="white" stroke="transparent" points="-4,4 -4,-388 522,-388 522,4 -4,4"/>
<!-- node0 -->
<g id="node1" class="node">
<title>node0</title>
<polygon fill="none" stroke="black" points="398.5,-384 257.5,-384 257.5,-348 398.5,-348 398.5,-384"/>
<text text-anchor="middle" x="328" y="-362.3" font-family="Times,serif" font-size="14.00">looks like a worm</text>
</g>
<!-- node1 -->
<g id="node2" class="node">
<title>node1</title>
<polygon fill="none" stroke="black" points="323,-297 201,-297 201,-261 323,-261 323,-297"/>
<text text-anchor="middle" x="262" y="-275.3" font-family="Times,serif" font-size="14.00">looks like a rat</text>
</g>
<!-- node0&#45;&gt;node1 -->
<g id="edge1" class="edge">
<title>node0&#45;&gt;node1</title>
<path fill="none" stroke="black" d="M314.64,-347.8C305.16,-335.59 292.28,-318.99 281.63,-305.28"/>
<polygon fill="black" stroke="black" points="284.23,-302.93 275.34,-297.18 278.7,-307.22 284.23,-302.93"/>
<text text-anchor="middle" x="308" y="-318.8" font-family="Times,serif" font-size="14.00">no</text>
</g>
<!-- node2 -->
<g id="node11" class="node">
<title>node2</title>
<polygon fill="none" stroke="black" points="451,-297 341,-297 341,-261 451,-261 451,-297"/>
<text text-anchor="middle" x="396" y="-275.3" font-family="Times,serif" font-size="14.00">colour brown</text>
</g>
<!-- node0&#45;&gt;node2 -->
<g id="edge10" class="edge">
<title>node0&#45;&gt;node2</title>
<path fill="none" stroke="black" d="M341.76,-347.8C351.53,-335.59 364.81,-318.99 375.78,-305.28"/>
<polygon fill="black" stroke="black" points="378.75,-307.17 382.26,-297.18 373.28,-302.8 378.75,-307.17"/>
<text text-anchor="middle" x="379.5" y="-318.8" font-family="Times,serif" font-size="14.00">yes</text>
</g>
<!-- node3 -->
<g id="node3" class="node">
<title>node3</title>
<polygon fill="none" stroke="black" points="202.5,-210 103.5,-210 103.5,-174 202.5,-174 202.5,-210"/>
<text text-anchor="middle" x="153" y="-188.3" font-family="Times,serif" font-size="14.00">loves water</text>
</g>
<!-- node1&#45;&gt;node3 -->
<g id="edge2" class="edge">
<title>node1&#45;&gt;node3</title>
<path fill="none" stroke="black" d="M239.94,-260.8C223.54,-248.01 200.98,-230.42 182.95,-216.36"/>
<polygon fill="black" stroke="black" points="185.06,-213.56 175.02,-210.18 180.76,-219.08 185.06,-213.56"/>
<text text-anchor="middle" x="224" y="-231.8" font-family="Times,serif" font-size="14.00">no</text>
</g>
<!-- node4 -->
<g id="node6" class="node">
<title>node4</title>
<polygon fill="none" stroke="black" points="333,-210 221,-210 221,-174 333,-174 333,-210"/>
<text text-anchor="middle" x="277" y="-188.3" font-family="Times,serif" font-size="14.00">colour purple</text>
</g>
<!-- node1&#45;&gt;node4 -->
<g id="edge5" class="edge">
<title>node1&#45;&gt;node4</title>
<path fill="none" stroke="black" d="M265.04,-260.8C267.09,-249.16 269.84,-233.55 272.19,-220.24"/>
<polygon fill="black" stroke="black" points="275.68,-220.63 273.97,-210.18 268.78,-219.41 275.68,-220.63"/>
<text text-anchor="middle" x="283.5" y="-231.8" font-family="Times,serif" font-size="14.00">yes</text>
</g>
<!-- node7 -->
<g id="node4" class="node">
<title>node7</title>
<polygon fill="none" stroke="black" points="106,-123 0,-123 0,-87 106,-87 106,-123"/>
<text text-anchor="middle" x="53" y="-101.3" font-family="Times,serif" font-size="14.00">Charmander</text>
</g>
<!-- node3&#45;&gt;node7 -->
<g id="edge3" class="edge">
<title>node3&#45;&gt;node7</title>
<path fill="none" stroke="black" d="M132.76,-173.8C117.85,-161.13 97.39,-143.73 80.93,-129.74"/>
<polygon fill="black" stroke="black" points="83.09,-126.99 73.21,-123.18 78.56,-132.32 83.09,-126.99"/>
<text text-anchor="middle" x="118" y="-144.8" font-family="Times,serif" font-size="14.00">no</text>
</g>
<!-- node8 -->
<g id="node5" class="node">
<title>node8</title>
<polygon fill="none" stroke="black" points="198,-123 124,-123 124,-87 198,-87 198,-123"/>
<text text-anchor="middle" x="161" y="-101.3" font-family="Times,serif" font-size="14.00">Squirtle</text>
</g>
<!-- node3&#45;&gt;node8 -->
<g id="edge4" class="edge">
<title>node3&#45;&gt;node8</title>
<path fill="none" stroke="black" d="M154.62,-173.8C155.71,-162.16 157.18,-146.55 158.44,-133.24"/>
<polygon fill="black" stroke="black" points="161.93,-133.46 159.38,-123.18 154.96,-132.8 161.93,-133.46"/>
<text text-anchor="middle" x="170.5" y="-144.8" font-family="Times,serif" font-size="14.00">yes</text>
</g>
<!-- node9 -->
<g id="node7" class="node">
<title>node9</title>
<polygon fill="none" stroke="black" points="297.5,-123 224.5,-123 224.5,-87 297.5,-87 297.5,-123"/>
<text text-anchor="middle" x="261" y="-101.3" font-family="Times,serif" font-size="14.00">Pikachu</text>
</g>
<!-- node4&#45;&gt;node9 -->
<g id="edge6" class="edge">
<title>node4&#45;&gt;node9</title>
<path fill="none" stroke="black" d="M273.76,-173.8C271.57,-162.16 268.63,-146.55 266.13,-133.24"/>
<polygon fill="black" stroke="black" points="269.52,-132.36 264.23,-123.18 262.64,-133.65 269.52,-132.36"/>
<text text-anchor="middle" x="279" y="-144.8" font-family="Times,serif" font-size="14.00">no</text>
</g>
<!-- node10 -->
<g id="node8" class="node">
<title>node10</title>
<polygon fill="none" stroke="black" points="390,-123 316,-123 316,-87 390,-87 390,-123"/>
<text text-anchor="middle" x="353" y="-101.3" font-family="Times,serif" font-size="14.00">big ears</text>
</g>
<!-- node4&#45;&gt;node10 -->
<g id="edge7" class="edge">
<title>node4&#45;&gt;node10</title>
<path fill="none" stroke="black" d="M292.38,-173.8C303.4,-161.47 318.42,-144.68 330.75,-130.89"/>
<polygon fill="black" stroke="black" points="333.59,-132.96 337.64,-123.18 328.37,-128.3 333.59,-132.96"/>
<text text-anchor="middle" x="332.5" y="-144.8" font-family="Times,serif" font-size="14.00">yes</text>
</g>
<!-- node21 -->
<g id="node9" class="node">
<title>node21</title>
<polygon fill="none" stroke="black" points="343,-36 273,-36 273,0 343,0 343,-36"/>
<text text-anchor="middle" x="308" y="-14.3" font-family="Times,serif" font-size="14.00">Rattata</text>
</g>
<!-- node10&#45;&gt;node21 -->
<g id="edge8" class="edge">
<title>node10&#45;&gt;node21</title>
<path fill="none" stroke="black" d="M343.89,-86.8C337.55,-74.82 328.97,-58.62 321.79,-45.06"/>
<polygon fill="black" stroke="black" points="324.87,-43.38 317.09,-36.18 318.68,-46.65 324.87,-43.38"/>
<text text-anchor="middle" x="343" y="-57.8" font-family="Times,serif" font-size="14.00">no</text>
</g>
<!-- node22 -->
<g id="node10" class="node">
<title>node22</title>
<polygon fill="none" stroke="black" points="435,-36 361,-36 361,0 435,0 435,-36"/>
<text text-anchor="middle" x="398" y="-14.3" font-family="Times,serif" font-size="14.00">Nidoran</text>
</g>
<!-- node10&#45;&gt;node22 -->
<g id="edge9" class="edge">
<title>node10&#45;&gt;node22</title>
<path fill="none" stroke="black" d="M362.11,-86.8C368.45,-74.82 377.03,-58.62 384.21,-45.06"/>
<polygon fill="black" stroke="black" points="387.32,-46.65 388.91,-36.18 381.13,-43.38 387.32,-46.65"/>
<text text-anchor="middle" x="391.5" y="-57.8" font-family="Times,serif" font-size="14.00">yes</text>
</g>
<!-- node5 -->
<g id="node12" class="node">
<title>node5</title>
<polygon fill="none" stroke="black" points="432,-210 354,-210 354,-174 432,-174 432,-210"/>
<text text-anchor="middle" x="393" y="-188.3" font-family="Times,serif" font-size="14.00">Caterpie</text>
</g>
<!-- node2&#45;&gt;node5 -->
<g id="edge11" class="edge">
<title>node2&#45;&gt;node5</title>
<path fill="none" stroke="black" d="M395.39,-260.8C394.98,-249.16 394.43,-233.55 393.96,-220.24"/>
<polygon fill="black" stroke="black" points="397.46,-220.05 393.61,-210.18 390.46,-220.29 397.46,-220.05"/>
<text text-anchor="middle" x="404" y="-231.8" font-family="Times,serif" font-size="14.00">no</text>
</g>
<!-- node6 -->
<g id="node13" class="node">
<title>node6</title>
<polygon fill="none" stroke="black" points="518,-210 450,-210 450,-174 518,-174 518,-210"/>
<text text-anchor="middle" x="484" y="-188.3" font-family="Times,serif" font-size="14.00">Weedle</text>
</g>
<!-- node2&#45;&gt;node6 -->
<g id="edge12" class="edge">
<title>node2&#45;&gt;node6</title>
<path fill="none" stroke="black" d="M413.81,-260.8C426.69,-248.36 444.28,-231.36 458.63,-217.5"/>
<polygon fill="black" stroke="black" points="461.46,-219.64 466.22,-210.18 456.59,-214.61 461.46,-219.64"/>
<text text-anchor="middle" x="457.5" y="-231.8" font-family="Times,serif" font-size="14.00">yes</text>
</g>
</g>
</svg>
