<?xml version="1.0" encoding="UTF-8" standalone="no"?>
<!DOCTYPE svg PUBLIC "-//W3C//DTD SVG 1.1//EN"
 "http://www.w3.org/Graphics/SVG/1.1/DTD/svg11.dtd">
<!-- Generated by graphviz version 2.50.0 (0)
 -->
<!-- Title: G Pages: 1 -->
<svg width="439pt" height="392pt"
 viewBox="0.00 0.00 438.50 392.00" xmlns="http://www.w3.org/2000/svg" xmlns:xlink="http://www.w3.org/1999/xlink">
<g id="graph0" class="graph" transform="scale(1 1) rotate(0) translate(4 388)">
<title>G</title>
<polygon fill="white" stroke="transparent" points="-4,4 -4,-388 434.5,-388 434.5,4 -4,4"/>
<!-- node0 -->
<g id="node1" class="node">
<title>node0</title>
<polygon fill="none" stroke="black" points="329,-384 213,-384 213,-348 329,-348 329,-384"/>
<text text-anchor="middle" x="271" y="-362.3" font-family="Times,serif" font-size="14.00">looks like a worm</text>
</g>
<!-- node1 -->
<g id="node2" class="node">
<title>node1</title>
<polygon fill="none" stroke="black" points="265,-297 167,-297 167,-261 265,-261 265,-297"/>
<text text-anchor="middle" x="216" y="-275.3" font-family="Times,serif" font-size="14.00">looks like a rat</text>
</g>
<!-- node0&#45;&gt;node1 -->
<g id="edge1" class="edge">
<title>node0&#45;&gt;node1</title>
<path fill="none" stroke="black" d="M259.87,-347.8C252.04,-335.7 241.43,-319.3 232.61,-305.67"/>
<polygon fill="black" stroke="black" points="235.48,-303.67 227.11,-297.18 229.61,-307.47 235.48,-303.67"/>
<text text-anchor="middle" x="254" y="-318.8" font-family="Times,serif" font-size="14.00">no</text>
</g>
<!-- node2 -->
<g id="node11" class="node">
<title>node2</title>
<polygon fill="none" stroke="black" points="372.5,-297 283.5,-297 283.5,-261 372.5,-261 372.5,-297"/>
<text text-anchor="middle" x="328" y="-275.3" font-family="Times,serif" font-size="14.00">colour brown</text>
</g>
<!-- node0&#45;&gt;node2 -->
<g id="edge10" class="edge">
<title>node0&#45;&gt;node2</title>
<path fill="none" stroke="black" d="M282.53,-347.8C290.65,-335.7 301.64,-319.3 310.79,-305.67"/>
<polygon fill="black" stroke="black" points="313.82,-307.43 316.48,-297.18 308.01,-303.53 313.82,-307.43"/>
<text text-anchor="middle" x="312.5" y="-318.8" font-family="Times,serif" font-size="14.00">yes</text>
</g>
<!-- node3 -->
<g id="node3" class="node">
<title>node3</title>
<polygon fill="none" stroke="black" points="165.5,-210 86.5,-210 86.5,-174 165.5,-174 165.5,-210"/>
<text text-anchor="middle" x="126" y="-188.3" font-family="Times,serif" font-size="14.00">loves water</text>
</g>
<!-- node1&#45;&gt;node3 -->
<g id="edge2" class="edge">
<title>node1&#45;&gt;node3</title>
<path fill="none" stroke="black" d="M197.79,-260.8C184.49,-248.24 166.29,-231.05 151.54,-217.12"/>
<polygon fill="black" stroke="black" points="153.86,-214.5 144.19,-210.18 149.05,-219.59 153.86,-214.5"/>
<text text-anchor="middle" x="184" y="-231.8" font-family="Times,serif" font-size="14.00">no</text>
</g>
<!-- node4 -->
<g id="node6" class="node">
<title>node4</title>
<polygon fill="none" stroke="black" points="272.5,-210 183.5,-210 183.5,-174 272.5,-174 272.5,-210"/>
<text text-anchor="middle" x="228" y="-188.3" font-family="Times,serif" font-size="14.00">colour purple</text>
</g>
<!-- node1&#45;&gt;node4 -->
<g id="edge5" class="edge">
<title>node1&#45;&gt;node4</title>
<path fill="none" stroke="black" d="M218.43,-260.8C220.07,-249.16 222.28,-233.55 224.15,-220.24"/>
<polygon fill="black" stroke="black" points="227.64,-220.57 225.58,-210.18 220.71,-219.59 227.64,-220.57"/>
<text text-anchor="middle" x="232.5" y="-231.8" font-family="Times,serif" font-size="14.00">yes</text>
</g>
<!-- node7 -->
<g id="node4" class="node">
<title>node7</title>
<polygon fill="none" stroke="black" points="84,-123 0,-123 0,-87 84,-87 84,-123"/>
<text text-anchor="middle" x="42" y="-101.3" font-family="Times,serif" font-size="14.00">Charmander</text>
</g>
<!-- node3&#45;&gt;node7 -->
<g id="edge3" class="edge">
<title>node3&#45;&gt;node7</title>
<path fill="none" stroke="black" d="M109,-173.8C96.7,-161.36 79.91,-144.36 66.22,-130.5"/>
<polygon fill="black" stroke="black" points="68.49,-127.83 58.97,-123.18 63.51,-132.75 68.49,-127.83"/>
<text text-anchor="middle" x="97" y="-144.8" font-family="Times,serif" font-size="14.00">no</text>
</g>
<!-- node8 -->
<g id="node5" class="node">
<title>node8</title>
<polygon fill="none" stroke="black" points="161.5,-123 102.5,-123 102.5,-87 161.5,-87 161.5,-123"/>
<text text-anchor="middle" x="132" y="-101.3" font-family="Times,serif" font-size="14.00">Squirtle</text>
</g>
<!-- node3&#45;&gt;node8 -->
<g id="edge4" class="edge">
<title>node3&#45;&gt;node8</title>
<path fill="none" stroke="black" d="M127.21,-173.8C128.04,-162.16 129.14,-146.55 130.08,-133.24"/>
<polygon fill="black" stroke="black" points="133.57,-133.4 130.79,-123.18 126.59,-132.9 133.57,-133.4"/>
<text text-anchor="middle" x="139.5" y="-144.8" font-family="Times,serif" font-size="14.00">yes</text>
</g>
<!-- node9 -->
<g id="node7" class="node">
<title>node9</title>
<polygon fill="none" stroke="black" points="246,-123 186,-123 186,-87 246,-87 246,-123"/>
<text text-anchor="middle" x="216" y="-101.3" font-family="Times,serif" font-size="14.00">Pikachu</text>
</g>
<!-- node4&#45;&gt;node9 -->
<g id="edge6" class="edge">
<title>node4&#45;&gt;node9</title>
<path fill="none" stroke="black" d="M225.57,-173.8C223.93,-162.16 221.72,-146.55 219.85,-133.24"/>
<polygon fill="black" stroke="black" points="223.29,-132.59 218.42,-123.18 216.36,-133.57 223.29,-132.59"/>
<text text-anchor="middle" x="230" y="-144.8" font-family="Times,serif" font-size="14.00">no</text>
</g>
<!-- node10 -->
<g id="node8" class="node">
<title>node10</title>
<polygon fill="none" stroke="black" points="323.5,-123 264.5,-123 264.5,-87 323.5,-87 323.5,-123"/>
<text text-anchor="middle" x="294" y="-101.3" font-family="Times,serif" font-size="14.00">big ears</text>
</g>
<!-- node4&#45;&gt;node10 -->
<g id="edge7" class="edge">
<title>node4&#45;&gt;node10</title>
<path fill="none" stroke="black" d="M241.36,-173.8C250.84,-161.59 263.72,-144.99 274.37,-131.28"/>
<polygon fill="black" stroke="black" points="277.3,-133.22 280.66,-123.18 271.77,-128.93 277.3,-133.22"/>
<text text-anchor="middle" x="274.5" y="-144.8" font-family="Times,serif" font-size="14.00">yes</text>
</g>
<!-- node21 -->
<g id="node9" class="node">
<title>node21</title>
<polygon fill="none" stroke="black" points="283.5,-36 228.5,-36 228.5,0 283.5,0 283.5,-36"/>
<text text-anchor="middle" x="256" y="-14.3" font-family="Times,serif" font-size="14.00">Rattata</text>
</g>
<!-- node10&#45;&gt;node21 -->
<g id="edge8" class="edge">
<title>node10&#45;&gt;node21</title>
<path fill="none" stroke="black" d="M286.31,-86.8C281,-74.93 273.85,-58.93 267.82,-45.45"/>
<polygon fill="black" stroke="black" points="270.96,-43.88 263.68,-36.18 264.56,-46.73 270.96,-43.88"/>
<text text-anchor="middle" x="285" y="-57.8" font-family="Times,serif" font-size="14.00">no</text>
</g>
<!-- node22 -->
<g id="node10" class="node">
<title>node22</title>
<polygon fill="none" stroke="black" points="362.5,-36 301.5,-36 301.5,0 362.5,0 362.5,-36"/>
<text text-anchor="middle" x="332" y="-14.3" font-family="Times,serif" font-size="14.00">Nidoran</text>
</g>
<!-- node10&#45;&gt;node22 -->
<g id="edge9" class="edge">
<title>node10&#45;&gt;node22</title>
<path fill="none" stroke="black" d="M301.69,-86.8C307,-74.93 314.15,-58.93 320.18,-45.45"/>
<polygon fill="black" stroke="black" points="323.44,-46.73 324.32,-36.18 317.04,-43.88 323.44,-46.73"/>
<text text-anchor="middle" x="325.5" y="-57.8" font-family="Times,serif" font-size="14.00">yes</text>
</g>
<!-- node5 -->
<g id="node12" class="node">
<title>node5</title>
<polygon fill="none" stroke="black" points="355,-210 293,-210 293,-174 355,-174 355,-210"/>
<text text-anchor="middle" x="324" y="-188.3" font-family="Times,serif" font-size="14.00">Caterpie</text>
</g>
<!-- node2&#45;&gt;node5 -->
<g id="edge11" class="edge">
<title>node2&#45;&gt;node5</title>
<path fill="none" stroke="black" d="M327.19,-260.8C326.64,-249.16 325.91,-233.55 325.28,-220.24"/>
<polygon fill="black" stroke="black" points="328.77,-220 324.81,-210.18 321.78,-220.33 328.77,-220"/>
<text text-anchor="middle" x="334" y="-231.8" font-family="Times,serif" font-size="14.00">no</text>
</g>
<!-- node6 -->
<g id="node13" class="node">
<title>node6</title>
<polygon fill="none" stroke="black" points="430.5,-210 373.5,-210 373.5,-174 430.5,-174 430.5,-210"/>
<text text-anchor="middle" x="402" y="-188.3" font-family="Times,serif" font-size="14.00">Weedle</text>
</g>
<!-- node2&#45;&gt;node6 -->
<g id="edge12" class="edge">
<title>node2&#45;&gt;node6</title>
<path fill="none" stroke="black" d="M342.98,-260.8C353.71,-248.47 368.33,-231.68 380.33,-217.89"/>
<polygon fill="black" stroke="black" points="383.12,-220.02 387.05,-210.18 377.84,-215.42 383.12,-220.02"/>
<text text-anchor="middle" x="378.5" y="-231.8" font-family="Times,serif" font-size="14.00">yes</text>
</g>
</g>
</svg>
